<svg xmlns="http://www.w3.org/2000/svg" class="markmap mm-hqhqgq-4" style="width: 100%; height: 100%;"><style>.markmap{--markmap-max-width: 9999px;--markmap-a-color: #0097e6;--markmap-a-hover-color: #00a8ff;--markmap-code-bg: #f0f0f0;--markmap-code-color: #555;--markmap-highlight-bg: #ffeaa7;--markmap-table-border: 1px solid currentColor;--markmap-font: 300 16px/20px sans-serif;--markmap-circle-open-bg: #fff;--markmap-text-color: #333;--markmap-highlight-node-bg: #ff02;font:var(--markmap-font);color:var(--markmap-text-color)}.markmap-link{fill:none}.markmap-node&gt;circle{cursor:pointer}.markmap-foreign{display:inline-block}.markmap-foreign p{margin:0}.markmap-foreign a{color:var(--markmap-a-color)}.markmap-foreign a:hover{color:var(--markmap-a-hover-color)}.markmap-foreign code{padding:.25em;font-size:calc(1em - 2px);color:var(--markmap-code-color);background-color:var(--markmap-code-bg);border-radius:2px}.markmap-foreign pre{margin:0}.markmap-foreign pre&gt;code{display:block}.markmap-foreign del{text-decoration:line-through}.markmap-foreign em{font-style:italic}.markmap-foreign strong{font-weight:700}.markmap-foreign mark{background:var(--markmap-highlight-bg)}.markmap-foreign table,.markmap-foreign th,.markmap-foreign td{border-collapse:collapse;border:var(--markmap-table-border)}.markmap-foreign img{display:inline-block}.markmap-foreign svg{fill:currentColor}.markmap-foreign&gt;div{width:var(--markmap-max-width);text-align:left}.markmap-foreign&gt;div&gt;div{display:inline-block}.markmap-highlight rect{fill:var(--markmap-highlight-node-bg)}.markmap-dark .markmap{--markmap-code-bg: #1a1b26;--markmap-code-color: #ddd;--markmap-circle-open-bg: #444;--markmap-text-color: #eee}</style><g transform="translate(20.000001525878986,296.91282644947427) scale(0.5226960508826674)"><path class="markmap-link" data-depth="3" data-path="1.2.3" d="M495,-134.281C535,-134.281,535,-175.031,575,-175.031" stroke-width="1.375" stroke="rgb(44, 160, 44)"/><path class="markmap-link" data-depth="3" data-path="1.2.4" d="M495,-134.281C535,-134.281,535,-146.656,575,-146.656" stroke-width="1.375" stroke="rgb(214, 39, 40)"/><path class="markmap-link" data-depth="3" data-path="1.2.5" d="M495,-134.281C535,-134.281,535,-120.281,575,-120.281" stroke-width="1.375" stroke="rgb(148, 103, 189)"/><path class="markmap-link" data-depth="3" data-path="1.2.6" d="M495,-134.281C535,-134.281,535,-93.906,575,-93.906" stroke-width="1.375" stroke="rgb(140, 86, 75)"/><path class="markmap-link" data-depth="3" data-path="1.7.8" d="M467,-21.781C507,-21.781,507,-62.531,547,-62.531" stroke-width="1.375" stroke="rgb(127, 127, 127)"/><path class="markmap-link" data-depth="3" data-path="1.7.9" d="M467,-21.781C507,-21.781,507,-36.156,547,-36.156" stroke-width="1.375" stroke="rgb(188, 189, 34)"/><path class="markmap-link" data-depth="3" data-path="1.7.10" d="M467,-21.781C507,-21.781,507,-7.781,547,-7.781" stroke-width="1.375" stroke="rgb(23, 190, 207)"/><path class="markmap-link" data-depth="3" data-path="1.7.11" d="M467,-21.781C507,-21.781,507,18.594,547,18.594" stroke-width="1.375" stroke="rgb(31, 119, 180)"/><path class="markmap-link" data-depth="3" data-path="1.12.13" d="M520,129.281C560,129.281,560,49.969,600,49.969" stroke-width="1.375" stroke="rgb(44, 160, 44)"/><path class="markmap-link" data-depth="3" data-path="1.12.14" d="M520,129.281C560,129.281,560,76.344,600,76.344" stroke-width="1.375" stroke="rgb(214, 39, 40)"/><path class="markmap-link" data-depth="3" data-path="1.12.15" d="M520,129.281C560,129.281,560,102.719,600,102.719" stroke-width="1.375" stroke="rgb(148, 103, 189)"/><path class="markmap-link" data-depth="3" data-path="1.12.16" d="M520,129.281C560,129.281,560,129.094,600,129.094" stroke-width="1.375" stroke="rgb(140, 86, 75)"/><path class="markmap-link" data-depth="3" data-path="1.12.17" d="M520,129.281C560,129.281,560,155.469,600,155.469" stroke-width="1.375" stroke="rgb(227, 119, 194)"/><path class="markmap-link" data-depth="3" data-path="1.12.18" d="M520,129.281C560,129.281,560,181.844,600,181.844" stroke-width="1.375" stroke="rgb(127, 127, 127)"/><path class="markmap-link" data-depth="3" data-path="1.12.19" d="M520,129.281C560,129.281,560,208.219,600,208.219" stroke-width="1.375" stroke="rgb(188, 189, 34)"/><path class="markmap-link" data-depth="2" data-path="1.2" d="M221,11.25C261,11.25,261,-134.281,301,-134.281" stroke-width="1.75" stroke="rgb(255, 127, 14)"/><path class="markmap-link" data-depth="2" data-path="1.7" d="M221,11.25C261,11.25,261,-21.781,301,-21.781" stroke-width="1.75" stroke="rgb(227, 119, 194)"/><path class="markmap-link" data-depth="2" data-path="1.12" d="M221,11.25C261,11.25,261,129.281,301,129.281" stroke-width="1.75" stroke="rgb(255, 127, 14)"/><path class="markmap-link" data-depth="2" data-path="1.20" d="M221,11.25C261,11.25,261,156.031,301,156.031" stroke-width="1.75" stroke="rgb(23, 190, 207)"/><g class="markmap-highlight"/><g data-depth="3" data-path="1.2.3" class="markmap-node" transform="translate(575, -195.71875)"><line stroke="#2ca02c" stroke-width="1.375" x1="-1" x2="881" y1="20.6875" y2="20.6875"/><foreignObject class="markmap-foreign" x="8" y="0" style="opacity: 1;" width="863" height="20"><div xmlns="http://www.w3.org/1999/xhtml"><div xmlns="http://www.w3.org/1999/xhtml"><strong>Дублирование валидации</strong> — больше не нужно писать валидацию в формах, сериализаторах и моделях отдельно</div></div></foreignObject></g><g data-depth="3" data-path="1.2.4" class="markmap-node" transform="translate(575, -169.34375)"><line stroke="#d62728" stroke-width="1.375" x1="-1" x2="523" y1="22.6875" y2="22.6875"/><foreignObject class="markmap-foreign" x="8" y="0" style="opacity: 1;" width="505" height="22"><div xmlns="http://www.w3.org/1999/xhtml"><div xmlns="http://www.w3.org/1999/xhtml"><strong>Отсутствие строгой типизации</strong> — полная поддержка <code>pyright --strict</code></div></div></foreignObject></g><g data-depth="3" data-path="1.2.5" class="markmap-node" transform="translate(575, -140.96875)"><line stroke="#9467bd" stroke-width="1.375" x1="-1" x2="594" y1="20.6875" y2="20.6875"/><foreignObject class="markmap-foreign" x="8" y="0" style="opacity: 1;" width="576" height="20"><div xmlns="http://www.w3.org/1999/xhtml"><div xmlns="http://www.w3.org/1999/xhtml"><strong>Проблемы с кэшированием</strong> — умная инвалидация без ручного управления</div></div></foreignObject></g><g data-depth="3" data-path="1.2.6" class="markmap-node" transform="translate(575, -114.59375)"><line stroke="#8c564b" stroke-width="1.375" x1="-1" x2="664" y1="20.6875" y2="20.6875"/><foreignObject class="markmap-foreign" x="8" y="0" style="opacity: 1;" width="646" height="20"><div xmlns="http://www.w3.org/1999/xhtml"><div xmlns="http://www.w3.org/1999/xhtml"><strong>Сложности с миграциями</strong> — встроенная поддержка concurrent миграций PostgreSQL</div></div></foreignObject></g><g data-depth="2" data-path="1.2" class="markmap-node" transform="translate(301, -155.15625)"><line stroke="#ff7f0e" stroke-width="1.75" x1="-1" x2="196" y1="20.875" y2="20.875"/><circle stroke-width="1.5" r="6" stroke="#ff7f0e" fill="var(--markmap-circle-open-bg)" cx="194" cy="20.875"/><foreignObject class="markmap-foreign" x="8" y="0" style="opacity: 1;" width="178" height="20"><div xmlns="http://www.w3.org/1999/xhtml"><div xmlns="http://www.w3.org/1999/xhtml">Что такое Django Nova?</div></div></foreignObject></g><g data-depth="3" data-path="1.7.8" class="markmap-node" transform="translate(547, -83.21875)"><line stroke="#7f7f7f" stroke-width="1.375" x1="-1" x2="738" y1="20.6875" y2="20.6875"/><foreignObject class="markmap-foreign" x="8" y="0" style="opacity: 1;" width="720" height="20"><div xmlns="http://www.w3.org/1999/xhtml"><div xmlns="http://www.w3.org/1999/xhtml">1. <strong>Единый источник истины</strong> — вся бизнес-логика валидации сосредоточена в Pydantic-схемах</div></div></foreignObject></g><g data-depth="3" data-path="1.7.9" class="markmap-node" transform="translate(547, -56.84375)"><line stroke="#bcbd22" stroke-width="1.375" x1="-1" x2="716" y1="20.6875" y2="20.6875"/><foreignObject class="markmap-foreign" x="8" y="0" style="opacity: 1;" width="698" height="20"><div xmlns="http://www.w3.org/1999/xhtml"><div xmlns="http://www.w3.org/1999/xhtml">2. <strong>Fail fast</strong> — ошибки должны отлавливаться на этапе статического анализа, а не в рантайме</div></div></foreignObject></g><g data-depth="3" data-path="1.7.10" class="markmap-node" transform="translate(547, -30.46875)"><line stroke="#17becf" stroke-width="1.375" x1="-1" x2="659" y1="22.6875" y2="22.6875"/><foreignObject class="markmap-foreign" x="8" y="0" style="opacity: 1;" width="641" height="22"><div xmlns="http://www.w3.org/1999/xhtml"><div xmlns="http://www.w3.org/1999/xhtml">3. <strong>Асинхронность по умолчанию</strong> — все операции спроектированы с учетом <code>asyncio</code></div></div></foreignObject></g><g data-depth="3" data-path="1.7.11" class="markmap-node" transform="translate(547, -2.09375)"><line stroke="#1f77b4" stroke-width="1.375" x1="-1" x2="645" y1="20.6875" y2="20.6875"/><foreignObject class="markmap-foreign" x="8" y="0" style="opacity: 1;" width="627" height="20"><div xmlns="http://www.w3.org/1999/xhtml"><div xmlns="http://www.w3.org/1999/xhtml">4. <strong>Zero-downtime</strong> — миграции и обновления не должны прерывать работу системы</div></div></foreignObject></g><g data-depth="2" data-path="1.7" class="markmap-node" transform="translate(301, -42.65625)"><line stroke="#e377c2" stroke-width="1.75" x1="-1" x2="168" y1="20.875" y2="20.875"/><circle stroke-width="1.5" r="6" stroke="#e377c2" fill="var(--markmap-circle-open-bg)" cx="166" cy="20.875"/><foreignObject class="markmap-foreign" x="8" y="0" style="opacity: 1;" width="150" height="20"><div xmlns="http://www.w3.org/1999/xhtml"><div xmlns="http://www.w3.org/1999/xhtml">Философия проекта</div></div></foreignObject></g><g data-depth="3" data-path="1.12.13" class="markmap-node" transform="translate(600, 29.28125)"><line stroke="#2ca02c" stroke-width="1.375" x1="-1" x2="188" y1="20.6875" y2="20.6875"/><foreignObject class="markmap-foreign" x="8" y="0" style="opacity: 1;" width="170" height="20"><div xmlns="http://www.w3.org/1999/xhtml"><div xmlns="http://www.w3.org/1999/xhtml"><a href="installation.md">Установка и настройка</a></div></div></foreignObject></g><g data-depth="3" data-path="1.12.14" class="markmap-node" transform="translate(600, 55.65625)"><line stroke="#d62728" stroke-width="1.375" x1="-1" x2="129" y1="20.6875" y2="20.6875"/><foreignObject class="markmap-foreign" x="8" y="0" style="opacity: 1;" width="111" height="20"><div xmlns="http://www.w3.org/1999/xhtml"><div xmlns="http://www.w3.org/1999/xhtml"><a href="quickstart.md">Быстрый старт</a></div></div></foreignObject></g><g data-depth="3" data-path="1.12.15" class="markmap-node" transform="translate(600, 82.03125)"><line stroke="#9467bd" stroke-width="1.375" x1="-1" x2="201" y1="20.6875" y2="20.6875"/><foreignObject class="markmap-foreign" x="8" y="0" style="opacity: 1;" width="183" height="20"><div xmlns="http://www.w3.org/1999/xhtml"><div xmlns="http://www.w3.org/1999/xhtml"><a href="architecture.md">Архитектурные решения</a></div></div></foreignObject></g><g data-depth="3" data-path="1.12.16" class="markmap-node" transform="translate(600, 108.40625)"><line stroke="#8c564b" stroke-width="1.375" x1="-1" x2="122" y1="20.6875" y2="20.6875"/><foreignObject class="markmap-foreign" x="8" y="0" style="opacity: 1;" width="104" height="20"><div xmlns="http://www.w3.org/1999/xhtml"><div xmlns="http://www.w3.org/1999/xhtml"><a href="api.md">API Reference</a></div></div></foreignObject></g><g data-depth="3" data-path="1.12.17" class="markmap-node" transform="translate(600, 134.78125)"><line stroke="#e377c2" stroke-width="1.375" x1="-1" x2="219" y1="20.6875" y2="20.6875"/><foreignObject class="markmap-foreign" x="8" y="0" style="opacity: 1;" width="201" height="20"><div xmlns="http://www.w3.org/1999/xhtml"><div xmlns="http://www.w3.org/1999/xhtml"><a href="migrations.md">Руководство по миграциям</a></div></div></foreignObject></g><g data-depth="3" data-path="1.12.18" class="markmap-node" transform="translate(600, 161.15625)"><line stroke="#7f7f7f" stroke-width="1.375" x1="-1" x2="159" y1="20.6875" y2="20.6875"/><foreignObject class="markmap-foreign" x="8" y="0" style="opacity: 1;" width="141" height="20"><div xmlns="http://www.w3.org/1999/xhtml"><div xmlns="http://www.w3.org/1999/xhtml"><a href="caching.md">Управление кэшем</a></div></div></foreignObject></g><g data-depth="3" data-path="1.12.19" class="markmap-node" transform="translate(600, 187.53125)"><line stroke="#bcbd22" stroke-width="1.375" x1="-1" x2="120" y1="20.6875" y2="20.6875"/><foreignObject class="markmap-foreign" x="8" y="0" style="opacity: 1;" width="102" height="20"><div xmlns="http://www.w3.org/1999/xhtml"><div xmlns="http://www.w3.org/1999/xhtml"><a href="best-practices.md">Best Practices</a></div></div></foreignObject></g><g data-depth="2" data-path="1.12" class="markmap-node" transform="translate(301, 108.40625)"><line stroke="#ff7f0e" stroke-width="1.75" x1="-1" x2="221" y1="20.875" y2="20.875"/><circle stroke-width="1.5" r="6" stroke="#ff7f0e" fill="var(--markmap-circle-open-bg)" cx="219" cy="20.875"/><foreignObject class="markmap-foreign" x="8" y="0" style="opacity: 1;" width="203" height="20"><div xmlns="http://www.w3.org/1999/xhtml"><div xmlns="http://www.w3.org/1999/xhtml">Содержание документации</div></div></foreignObject></g><g data-depth="2" data-path="1.20" class="markmap-node" transform="translate(301, 135.15625)"><line stroke="#17becf" stroke-width="1.75" x1="-1" x2="62" y1="20.875" y2="20.875"/><foreignObject class="markmap-foreign" x="8" y="0" style="opacity: 1;" width="44" height="20"><div xmlns="http://www.w3.org/1999/xhtml"><div xmlns="http://www.w3.org/1999/xhtml">Автор</div></div></foreignObject></g><g data-depth="1" data-path="1" class="markmap-node" transform="translate(0, -10)"><line stroke="#1f77b4" stroke-width="2.5" x1="-1" x2="223" y1="21.25" y2="21.25"/><circle stroke-width="1.5" r="6" stroke="#1f77b4" fill="var(--markmap-circle-open-bg)" cx="221" cy="21.25"/><foreignObject class="markmap-foreign" x="8" y="0" style="opacity: 1;" width="205" height="20"><div xmlns="http://www.w3.org/1999/xhtml"><div xmlns="http://www.w3.org/1999/xhtml">Django Nova Documentation</div></div></foreignObject></g></g></svg>